# xmcd
#
# Track frame offsets: 
#        150
#        17322
#        41360
#        59974
#        75143
#        92576
#        108281
#        123903
#        141061
#        163109
#        179202
#        195261
#        216968
#        228568
#        246864
#        260416
#
# Disc length: 3706 seconds
#
# Revision: 0
# Processed by: cddbd v1.5.2PL0 Copyright (c) Steve Scherf et al.
# Submitted via: ExactAudioCopy v0.99pb4
#
DISCID=d30e7810
DTITLE=Various Artist - The Very Best of Rare Groove - Volumes 17 and 18
DYEAR=1900
DGENRE=Rare Groove
TTITLE0=Tyrone Davis - In the Mood
TTITLE1=Anita Baker - Feel the Need
TTITLE2=Leon Ware - Why I Came to California
TTITLE3=The Chi-lites - Go Away Dream
TTITLE4=Ivy - Tell Me
TTITLE5=Edee - Make it Last
TTITLE6=High Energy - Make Me Yours
TTITLE7=Tavares - I Hope You'll be Very Unhappy Without Me
TTITLE8=Teddy Pendergrass - When Somebody Loves You Back
TTITLE9=Betty Wright - Like Your Loving
TTITLE10=Esther Phillips - Bed Time Stories
TTITLE11=The Skool Boys - This Feeling Must Be Real
TTITLE12=Maxine Brown - Oh No Not My Baby
TTITLE13=Atlantic Starr - Second to None
TTITLE14=The Four Tops - Ain't No Woman (Like the One I've Got)
TTITLE15=The Chi-lites - Hot On a Thing
EXTD=
EXTT0=
EXTT1=
EXTT2=
EXTT3=
EXTT4=
EXTT5=
EXTT6=
EXTT7=
EXTT8=
EXTT9=
EXTT10=
EXTT11=
EXTT12=
EXTT13=
EXTT14=
EXTT15=
PLAYORDER=
